<svg id="Capa_1" enable-background="new 0 0 512 512" height="512" viewBox="0 0 512 512" width="512" xmlns="http://www.w3.org/2000/svg"><g id="Flat"><path d="m392 400c0 13.255-10.745 24-24 24h-224c-13.255 0-24-10.745-24-24 0-5.193 1.684-10.246 4.8-14.4l19.2-25.6v-102.42c0-.78.01-1.55.02-2.33 1.096-46.55 34.321-86.119 79.98-95.25h64c22.564 4.496 42.867 16.687 57.44 34.49 1.53 1.87 3 3.8 4.39 5.78 11.839 16.764 18.187 36.787 18.17 57.31v102.42l19.2 25.6c3.118 4.153 4.802 9.207 4.8 14.4z" fill="#7eb457"/><path d="m238.55 175.19 10.44 32.81-33.63 7.36-7.36 33.63-32.81-10.44-23.19 25.45-7.98-8.75c1.096-46.55 34.321-86.119 79.98-95.25h31.22z" fill="#79ad54"/><path d="m392 400c0 13.255-10.745 24-24 24h-224c-13.255 0-24-10.745-24-24 0-5.193 1.684-10.246 4.8-14.4l19.2-25.6v-1.39c76-30.91 149.37-81.23 205.83-158.34 11.839 16.764 18.187 36.787 18.17 57.31v102.42l19.2 25.6c3.118 4.153 4.802 9.207 4.8 14.4z" fill="#79ad54"/><path d="m272 264h-32c-6.627 0-12-5.373-12-12s5.373-12 12-12h52v-16h-28v-16h-16v16h-8c-15.464 0-28 12.536-28 28s12.536 28 28 28h32c6.627 0 12 5.373 12 12s-5.373 12-12 12h-52v16h28v16h16v-16h8c15.464 0 28-12.536 28-28s-12.536-28-28-28z" fill="#5f943a"/><path d="m224 160-16-56h96l-16 56z" fill="#74a650"/><path d="m368 376h88v112h-88z" fill="#348fd9"/><path d="m138 24 23.19 25.453 32.81-10.448 7.357 33.638 33.638 7.357-10.448 32.81 25.453 23.19-25.453 23.19 10.448 32.81-33.638 7.357-7.357 33.638-32.81-10.448-23.19 25.453-23.19-25.453-32.81 10.448-7.357-33.638-33.638-7.357 10.448-32.81-25.453-23.19 25.453-23.19-10.448-32.81 33.638-7.357 7.357-33.638 32.81 10.448z" fill="#ffb531"/><g fill="#f98500"><path d="m81.431 128.002h113.137v16h-113.137z" transform="matrix(.707 -.707 .707 .707 -55.749 137.421)"/><path d="m106 128c-13.255 0-24-10.745-24-24s10.745-24 24-24 24 10.745 24 24c-.015 13.249-10.751 23.985-24 24zm0-32c-4.418 0-8 3.582-8 8s3.582 8 8 8 8-3.582 8-8c-.005-4.416-3.584-7.995-8-8z"/><path d="m178 184c-13.255 0-24-10.745-24-24s10.745-24 24-24 24 10.745 24 24c-.015 13.249-10.751 23.985-24 24zm0-32c-4.418 0-8 3.582-8 8s3.582 8 8 8 8-3.582 8-8c-.005-4.416-3.584-7.995-8-8z"/></g><path d="m368 376v112h-169.34c-14.903.001-29.602-3.471-42.93-10.14l-93.28-46.63c-8.854-4.435-14.447-13.487-14.45-23.39v-1.74c.001-14.439 11.707-26.144 26.146-26.144 3.756 0 7.468.81 10.884 2.374l90.97 41.67h16c-13.255 0-24-10.745-24-24s10.745-24 24-24h61.33l.75-.45c32.002-19.195 71.591-20.714 104.97-4.03l2 1z" fill="#fec9a3"/><path d="m368 376v112h-169.34c-9.261-.001-18.473-1.341-27.35-3.98 92.69-28.02 140.69-60.02 189.74-111.5z" fill="#fec093"/><path d="m192 416h64c4.418 0 8 3.582 8 8 0 4.418-3.582 8-8 8h-64c-4.418 0-8-3.582-8-8 0-4.418 3.582-8 8-8z" fill="#feb784"/><path d="m368 448h88v40h-88z" fill="#3086cd"/><circle cx="408" cy="448" fill="#2a71ad" r="16"/></g></svg>