<svg id="Capa_1" enable-background="new 0 0 512 512" height="512" viewBox="0 0 512 512" width="512" xmlns="http://www.w3.org/2000/svg" xmlns:xlink="http://www.w3.org/1999/xlink"><linearGradient id="SVGID_1_" gradientUnits="userSpaceOnUse" x1="241" x2="241" y1="512" y2="0"><stop offset="0" stop-color="#5558ff"/><stop offset="1" stop-color="#00c0ff"/></linearGradient><linearGradient id="SVGID_2_" gradientUnits="userSpaceOnUse" x1="286" x2="286" y1="512" y2="0"><stop offset="0" stop-color="#addcff"/><stop offset=".5028" stop-color="#eaf6ff"/><stop offset="1" stop-color="#eaf6ff"/></linearGradient><g><g><g><path d="m406 210v-90l-120-120h-225c-8.291 0-15 6.709-15 15v452c0 24.814 20.186 45 45 45h345v-272z" fill="url(#SVGID_1_)"/></g></g><g><g><path d="m331 421h-90c-8.291 0-15 6.709-15 15s6.709 15 15 15h90c8.291 0 15-6.709 15-15s-6.709-15-15-15zm-150-60h-60c-8.291 0-15 6.709-15 15s6.709 15 15 15h60c8.291 0 15-6.709 15-15s-6.709-15-15-15zm120-241h105v-15c0-3.984-1.582-7.793-4.395-10.605l-90-90c-2.812-2.813-6.621-4.395-10.605-4.395h-15v105c0 8.291 6.709 15 15 15zm-120 301h-60c-8.291 0-15 6.709-15 15s6.709 15 15 15h60c8.291 0 15-6.709 15-15s-6.709-15-15-15zm150-211h-210c-8.291 0-15 6.709-15 15v91c0 8.291 6.709 15 15 15h210c8.291 0 15-6.709 15-15v-91c0-8.291-6.709-15-15-15zm0 151h-90c-8.291 0-15 6.709-15 15s6.709 15 15 15h90c8.291 0 15-6.709 15-15s-6.709-15-15-15zm120-151h-45v272c0 16.5 13.5 30 30 30s30-13.5 30-30v-257c0-8.401-6.599-15-15-15zm-120-60h-210c-8.291 0-15 6.709-15 15s6.709 15 15 15h210c8.291 0 15-6.709 15-15s-6.709-15-15-15z" fill="url(#SVGID_2_)"/></g></g></g></svg>