<svg id="Capa_1" enable-background="new 0 0 511.899 511.899" height="512" viewBox="0 0 511.899 511.899" width="512" xmlns="http://www.w3.org/2000/svg" xmlns:xlink="http://www.w3.org/1999/xlink"><linearGradient id="SVGID_1_" gradientTransform="matrix(.707 .707 -.707 .707 247.396 -84.666)" gradientUnits="userSpaceOnUse" x1="209.401" x2="209.401" y1="583.058" y2="-45.95"><stop offset="0" stop-color="#addcff"/><stop offset=".5028" stop-color="#eaf6ff"/><stop offset="1" stop-color="#eaf6ff"/></linearGradient><linearGradient id="SVGID_2_" gradientTransform="matrix(.707 .707 -.707 .707 247.396 -84.666)" gradientUnits="userSpaceOnUse" x1="239.401" x2="239.401" y1="478.058" y2="-98.443"><stop offset="0" stop-color="#5558ff"/><stop offset="1" stop-color="#00c0ff"/></linearGradient><g><g><g><path d="m46.82 390.833-.036.036c-.932 1.295-1.849 2.564-2.781 3.858l-42.427 84.854c-2.88 5.78-1.74 12.761 2.817 17.319 4.557 4.557 11.539 5.697 17.319 2.817l84.853-42.426c1.44-.735 2.755-1.678 3.895-2.817l3.573-38.854-23.781-23.781zm190.919-190.918-42.426 42.426.335 42.761 23.446 23.446 39.858-2.568 42.427-42.426 5.582-36.844-23.781-23.781zm112.796-189.156c-4.672-.673-9.395.901-12.73 4.236l-127.279 127.28c-4.019 4.019-5.407 9.964-3.625 15.351 1.768 5.303 6.417 9.307 12.109 10.099l44.555 6.365 21.766-.553 4.741-25.954-37.119-5.307 100.762-100.764 37.128 5.298 23.776-2.563 2.73-23.943z" fill="url(#SVGID_1_)"/></g></g><g><g><path d="m46.82 390.833 63.64 63.64 148.492-148.492-63.64-63.64zm464.316-348.762c-1.813-5.355-6.484-9.302-12.109-10.099l-81.678-11.668-179.61 179.61 63.64 63.64 206.131-206.132c4.019-4.019 5.407-9.964 3.626-15.351z" fill="url(#SVGID_2_)"/></g></g></g></svg>