<svg id="Capa_1" enable-background="new 0 0 497 497" height="512" viewBox="0 0 497 497" width="512" xmlns="http://www.w3.org/2000/svg"><g><path d="m115.496 497h-26.232c-3.623 0-6.56-2.937-6.56-6.56v-51.685l19.352-10 20 10v51.685c0 3.623-2.937 6.56-6.56 6.56z" fill="#d5c6ad"/><path d="m187.646 497h-26.232c-3.623 0-6.56-2.937-6.56-6.56v-51.685l19.676-10 19.676 10v51.685c0 3.623-2.937 6.56-6.56 6.56z" fill="#e9e0c3"/><path d="m377.059 443.817v-5.062l19.676-10 19.676 10v51.685c0 3.623-2.937 6.56-6.56 6.56h-26.232c-3.623 0-6.56-2.937-6.56-6.56z" fill="#e9e0c3"/><path d="m109.854 0c-4.926 0-9.11 3.604-9.84 8.476l-32.744 418.855c-.901 6.015 3.758 11.424 9.84 11.424h67.187z" fill="#ae6834"/><path d="m419.892 438.755h-276.514c-5.207 0-9.533-4.014-9.922-9.206l-31.371-418.856c-.433-5.772 4.134-10.693 9.921-10.693h276.514c5.207 0 9.533 4.014 9.922 9.207l31.372 418.855c.432 5.772-4.134 10.693-9.922 10.693z" fill="#d88a55"/><path d="m166.908 392.189-25.761-343.942c-.489-6.53 4.678-12.098 11.226-12.098h201.39c5.891 0 10.786 4.542 11.226 10.417l25.761 343.942c.489 6.53-4.677 12.099-11.226 12.099h-201.39c-5.891-.001-10.786-4.543-11.226-10.418z" fill="#f2f5fb"/><path d="m390.75 390.508-25.761-343.942c-.44-5.875-5.335-10.417-11.226-10.417h-20c5.891 0 10.786 4.542 11.226 10.417l25.761 343.942c.489 6.53-4.677 12.099-11.226 12.099h20c6.549-.001 11.716-5.569 11.226-12.099z" fill="#e6e8f0"/><path d="m429.814 428.062-31.373-418.855c-.388-5.193-4.715-9.207-9.921-9.207h-30c5.207 0 9.533 4.014 9.922 9.207l31.372 418.855c.432 5.772-4.134 10.693-9.922 10.693h30c5.788 0 10.354-4.921 9.922-10.693z" fill="#ae6834"/><g fill="#d8d8d8"><path d="m325.194 100.23h-74.16c-4.142 0-7.5-3.358-7.5-7.5s3.358-7.5 7.5-7.5h74.16c4.142 0 7.5 3.358 7.5 7.5s-3.358 7.5-7.5 7.5z"/><path d="m212.892 100.23h-26.38c-4.142 0-7.5-3.358-7.5-7.5s3.358-7.5 7.5-7.5h26.38c4.142 0 7.5 3.358 7.5 7.5s-3.358 7.5-7.5 7.5z"/><path d="m328.194 141.385h-72.829c-4.142 0-7.5-3.358-7.5-7.5s3.358-7.5 7.5-7.5h72.829c4.142 0 7.5 3.358 7.5 7.5s-3.358 7.5-7.5 7.5z"/><path d="m215.892 141.385h-26.38c-4.142 0-7.5-3.358-7.5-7.5s3.358-7.5 7.5-7.5h26.38c4.142 0 7.5 3.358 7.5 7.5s-3.358 7.5-7.5 7.5z"/><path d="m333.194 182.539h-74.829c-4.142 0-7.5-3.358-7.5-7.5s3.358-7.5 7.5-7.5h74.829c4.142 0 7.5 3.358 7.5 7.5s-3.358 7.5-7.5 7.5z"/><path d="m221.118 182.539h-26.607c-4.142 0-7.5-3.358-7.5-7.5s3.358-7.5 7.5-7.5h26.607c4.142 0 7.5 3.358 7.5 7.5s-3.358 7.5-7.5 7.5z"/><path d="m335.194 223.693h-72.066c-4.142 0-7.5-3.358-7.5-7.5s3.358-7.5 7.5-7.5h72.066c4.142 0 7.5 3.358 7.5 7.5s-3.358 7.5-7.5 7.5z"/><path d="m224.744 223.693h-28.233c-4.142 0-7.5-3.358-7.5-7.5s3.358-7.5 7.5-7.5h28.233c4.142 0 7.5 3.358 7.5 7.5s-3.358 7.5-7.5 7.5z"/><path d="m339.194 260.847h-46.561c-4.142 0-7.5-3.358-7.5-7.5s3.358-7.5 7.5-7.5h46.561c4.142 0 7.5 3.358 7.5 7.5 0 4.143-3.358 7.5-7.5 7.5z"/></g><path d="m252.105 301.36c-1.788-.486-3.614-.997-5.441-1.531l-2.201-29.621c.839.181 1.616.399 2.321.633 3.044 1.013 6.391.061 8.37-2.464 3.159-4.03 1.473-10.03-3.366-11.706-2.417-.837-5.268-1.537-8.468-1.844l-.423-5.694c-.307-4.13-3.887-7.228-8.035-6.924-4.131.307-7.23 3.904-6.924 8.035l.464 6.24c-.777.247-1.56.513-2.356.818-9.574 3.677-16.268 12.592-17.469 23.266-1.099 9.76 2.694 18.825 9.898 23.659 3.631 2.436 8.046 4.587 13.974 6.747l2.846 38.309c-4.733-.11-8.035-1.183-13.57-4.243-3.891-2.152-8.864-.48-10.591 3.77-1.443 3.548.195 7.634 3.552 9.478 8.503 4.671 14.329 6.005 21.402 6.005.105 0 .216-.004.322-.005l.474 6.38c.293 3.942 3.581 6.944 7.472 6.944.186 0 .375-.007.563-.021 4.131-.307 7.23-3.904 6.924-8.035l-.524-7.055c14.068-4.299 22.36-17.028 23.474-29.057 1.424-15.353-7.482-27.947-22.688-32.084zm-25.272-9.588c-2.498-1.676-3.812-5.414-3.35-9.525.391-3.474 2.206-7.692 6.088-10.034l1.635 22.01c-1.611-.777-3.091-1.591-4.373-2.451zm33.025 40.289c-.514 5.549-3.734 11.617-9.702 14.775l-2.31-31.09c.109.03.211.059.321.089 11.942 3.248 11.967 13.24 11.691 16.226z" fill="#ffe07d"/></g></svg>