<svg id="Capa_1" enable-background="new 0 0 512 512" height="512" viewBox="0 0 512 512" width="512" xmlns="http://www.w3.org/2000/svg" xmlns:xlink="http://www.w3.org/1999/xlink"><linearGradient id="SVGID_1_" gradientUnits="userSpaceOnUse" x1="256" x2="256" y1="512" y2="0"><stop offset="0" stop-color="#5558ff"/><stop offset="1" stop-color="#00c0ff"/></linearGradient><linearGradient id="SVGID_2_" gradientUnits="userSpaceOnUse" x1="256" x2="256" y1="391" y2="121"><stop offset="0" stop-color="#addcff"/><stop offset=".5028" stop-color="#eaf6ff"/><stop offset="1" stop-color="#eaf6ff"/></linearGradient><g><g><g><path d="m437 0h-361c-41.367 0-76 33.647-76 75v362c0 41.353 34.633 75 76 75h361c41.367 0 75-33.647 75-75v-362c0-41.353-33.633-75-75-75z" fill="url(#SVGID_1_)"/></g></g><g><g><path d="m226 121h-120c-8.284 0-15 6.716-15 15v30c0 8.284 6.716 15 15 15h120c8.284 0 15-6.716 15-15v-30c0-8.284-6.716-15-15-15zm0 90h-120c-8.284 0-15 6.716-15 15v150c0 8.284 6.716 15 15 15h120c8.284 0 15-6.716 15-15v-150c0-8.284-6.716-15-15-15zm180 0h-120c-8.284 0-15 6.716-15 15v150c0 8.284 6.716 15 15 15h120c8.284 0 15-6.716 15-15v-150c0-8.284-6.716-15-15-15zm0-90h-120c-8.284 0-15 6.716-15 15v30c0 8.284 6.716 15 15 15h120c8.284 0 15-6.716 15-15v-30c0-8.284-6.716-15-15-15z" fill="url(#SVGID_2_)"/></g></g></g></svg>